<?xml version="1.0" standalone="no"?>
<!DOCTYPE svg PUBLIC "-//W3C//DTD SVG 20010904//EN"
 "http://www.w3.org/TR/2001/REC-SVG-20010904/DTD/svg10.dtd">
<svg version="1.0" xmlns="http://www.w3.org/2000/svg"
 width="1300.000000pt" height="1281.000000pt" viewBox="0 0 1300.000000 1281.000000"
 preserveAspectRatio="xMidYMid meet">

<g transform="translate(0.000000,1281.000000) scale(0.100000,-0.100000)"
fill="#000000" stroke="none">
<path d="M6318 11945 c-5 -6 -150 -21 -398 -41 -36 -3 -68 -10 -71 -16 -3 -5
-34 -12 -67 -15 -34 -3 -59 -10 -56 -14 3 -5 -15 -9 -40 -9 -24 0 -46 -5 -48
-10 -2 -6 -27 -13 -56 -17 -28 -3 -52 -9 -52 -12 0 -4 -19 -8 -42 -10 -23 -1
-47 -6 -53 -10 -5 -5 -25 -12 -42 -16 -18 -3 -33 -11 -33 -16 0 -5 -15 -9 -33
-9 -18 0 -37 -4 -42 -9 -6 -5 -35 -16 -65 -26 -30 -9 -68 -22 -85 -29 -16 -7
-61 -26 -100 -42 -173 -70 -433 -214 -634 -351 -573 -390 -1041 -932 -1337
-1548 -172 -359 -268 -660 -340 -1065 -96 -544 -60 -1263 92 -1846 39 -150
124 -406 174 -524 17 -41 36 -88 42 -105 23 -65 27 -63 148 82 63 76 117 140
120 143 3 3 39 46 80 95 41 50 77 92 80 95 3 3 39 46 80 95 41 50 77 92 80 95
7 6 209 247 265 315 22 27 90 107 150 178 61 71 121 144 135 161 21 27 118
142 145 172 6 6 28 33 50 60 22 27 55 65 73 85 18 21 47 55 65 77 43 54 230
276 237 282 4 3 38 43 76 90 38 47 79 96 91 110 12 14 97 115 189 225 91 110
181 216 198 235 17 20 51 60 76 90 78 94 162 191 189 219 14 15 37 44 51 64
24 36 40 47 40 27 0 -5 -9 -14 -21 -20 -11 -7 -18 -14 -15 -18 4 -3 23 10 44
30 20 19 52 45 70 57 18 12 29 27 26 33 -5 7 -2 8 5 3 8 -4 24 1 40 13 15 11
51 32 79 46 29 15 51 30 48 34 -2 4 3 8 12 9 9 1 60 19 113 41 200 83 403 118
639 109 143 -5 339 -39 415 -72 90 -39 168 -65 177 -59 6 4 8 3 5 -3 -8 -12
61 -46 75 -37 6 4 8 3 5 -3 -3 -5 13 -20 36 -33 37 -21 100 -65 177 -124 14
-11 74 -70 134 -130 64 -64 116 -110 125 -108 12 2 13 1 3 -6 -10 -7 0 -29 43
-92 63 -94 141 -252 175 -355 13 -38 27 -74 30 -80 4 -5 13 -49 20 -97 7 -48
16 -86 19 -84 3 2 8 -82 9 -187 4 -175 2 -203 -22 -317 -35 -173 -77 -295
-146 -429 -34 -65 -51 -106 -40 -96 11 10 20 25 20 33 0 9 6 12 16 8 8 -3 12
-2 9 4 -3 6 10 27 29 48 20 20 36 43 36 50 0 6 6 12 14 12 8 0 17 8 20 18 3 9
24 37 46 61 22 24 40 50 40 57 0 8 6 14 13 14 12 0 55 49 67 76 6 15 140 165
197 221 24 24 43 45 43 49 0 3 11 20 25 38 14 17 33 41 42 54 10 13 35 42 56
64 20 22 37 42 37 45 0 8 122 147 142 161 10 7 18 19 18 27 0 8 6 18 13 22 7
4 36 37 65 73 29 36 61 76 72 88 11 13 20 28 20 33 0 5 5 9 10 9 14 0 59 51
60 68 0 6 6 12 13 12 8 0 28 20 45 44 33 46 47 63 107 131 19 22 35 43 35 48
0 4 12 12 26 17 14 6 28 18 31 28 2 9 27 35 54 56 27 22 49 45 49 52 0 7 6 17
13 21 7 4 30 33 51 63 22 30 43 57 48 58 4 2 8 11 8 21 0 9 19 40 43 67 23 27
49 58 57 68 8 9 22 25 30 34 92 104 150 174 150 180 0 4 19 28 43 53 54 59
129 146 179 209 22 28 44 50 49 50 5 0 9 10 9 23 0 18 2 19 10 7 8 -13 10 -12
10 3 0 11 5 15 11 11 8 -4 9 1 4 16 -5 15 -4 20 4 16 7 -5 9 -1 5 9 -4 10 -10
12 -18 6 -8 -7 -12 -5 -12 7 -1 27 -8 46 -19 54 -5 4 -10 13 -11 20 -3 39 -4
41 -17 29 -11 -8 -13 -5 -9 19 3 21 -1 32 -12 36 -9 3 -13 10 -10 15 3 5 -2
12 -10 15 -9 3 -16 14 -16 23 0 26 -11 33 -29 19 -13 -10 -14 -10 -3 2 14 17
16 34 2 25 -6 -4 -7 1 -3 11 5 13 3 16 -10 11 -11 -4 -14 -2 -10 8 3 8 -9 34
-26 57 -17 23 -31 37 -31 31 0 -7 6 -18 13 -25 6 -7 18 -22 26 -33 7 -11 -3
-2 -23 19 -24 26 -34 46 -30 58 3 11 -4 27 -20 43 -14 14 -26 29 -26 33 0 4
-13 22 -30 40 -16 18 -31 36 -32 40 -2 4 -6 6 -10 5 -5 -2 -8 5 -8 14 0 9 -3
13 -6 10 -10 -10 -53 44 -47 58 2 7 0 16 -6 20 -7 4 -8 -1 -4 -12 6 -16 5 -16
-10 -5 -9 8 -13 20 -10 29 4 11 2 14 -5 9 -7 -4 -12 -1 -12 8 0 9 -7 16 -16
16 -10 0 -14 5 -10 16 3 8 2 13 -2 10 -4 -2 -16 2 -27 10 -13 10 -15 14 -4 14
9 0 5 8 -11 23 -14 12 -19 18 -10 13 8 -5 -4 10 -27 33 -24 24 -43 48 -43 53
0 6 -7 7 -16 4 -10 -4 -21 4 -32 24 -9 16 -20 30 -24 30 -5 0 -8 8 -8 18 0 14
-2 15 -10 2 -7 -11 -10 -11 -10 -2 0 8 -5 10 -12 6 -9 -5 -9 -2 1 9 10 13 11
17 1 17 -7 0 -23 11 -36 25 -13 14 -28 25 -34 25 -6 0 -8 5 -4 12 5 8 2 9 -10
5 -11 -5 -16 -2 -14 7 4 18 -41 58 -55 49 -5 -3 -7 -1 -4 4 4 6 -1 17 -10 24
-14 12 -16 12 -8 -1 4 -8 -5 0 -22 18 -16 17 -35 32 -41 32 -6 0 -19 11 -28
26 -9 14 -23 23 -30 20 -8 -3 -13 0 -11 7 1 7 -6 11 -16 11 -10 -1 -16 0 -13
3 10 10 -37 44 -52 38 -11 -4 -12 -2 -4 7 7 9 6 17 -4 26 -7 7 -15 12 -16 12
-11 -4 -37 14 -32 21 3 5 -2 6 -10 3 -10 -4 -27 6 -45 26 -16 18 -34 29 -40
26 -6 -4 -11 0 -11 9 0 9 -4 14 -8 11 -5 -3 -16 4 -25 15 -13 15 -22 17 -36 9
-16 -8 -18 -7 -15 8 3 12 -7 22 -36 36 -22 11 -40 22 -40 26 0 4 -16 11 -35
14 -20 4 -33 11 -30 17 4 5 -1 9 -9 9 -9 0 -16 3 -16 8 0 8 -48 32 -66 32 -6
0 -22 8 -35 19 -13 10 -35 22 -49 26 -14 4 -29 13 -35 19 -5 7 -28 18 -50 25
-22 8 -43 18 -47 24 -3 6 -14 12 -23 13 -9 1 -32 10 -51 19 -20 9 -42 14 -49
11 -9 -3 -12 0 -8 10 4 10 -2 14 -21 14 -14 0 -26 5 -26 10 0 6 -10 10 -22 10
-12 0 -29 6 -37 13 -18 15 -74 32 -136 43 -33 5 -37 8 -20 14 16 7 12 9 -17 9
-21 1 -38 6 -38 11 0 6 -11 10 -24 10 -13 0 -29 7 -36 15 -7 8 -28 15 -46 15
-19 0 -34 4 -34 9 0 5 -22 12 -50 16 -27 4 -50 11 -50 16 0 5 -19 9 -43 9 -24
0 -48 5 -54 11 -5 5 -36 13 -67 16 -31 3 -56 10 -56 14 0 5 -20 9 -44 9 -23 0
-57 5 -74 11 -16 6 -99 15 -184 21 -178 12 -761 21 -770 13z m1659 -241 c-3
-3 -12 -4 -19 -1 -8 3 -5 6 6 6 11 1 17 -2 13 -5z m1717 -1250 c3 -8 2 -12 -4
-9 -6 3 -10 10 -10 16 0 14 7 11 14 -7z m110 -110 c3 -8 2 -12 -4 -9 -6 3 -10
10 -10 16 0 14 7 11 14 -7z m50 -84 c-5 -5 -10 3 -11 18 -1 22 0 24 9 8 6 -10
6 -22 2 -26z m-3859 -650 c-3 -5 -12 -10 -18 -10 -7 0 -6 4 3 10 19 12 23 12
15 0z m175 -110 c11 -8 7 -9 -15 -4 -37 8 -45 14 -19 14 10 0 26 -5 34 -10z
m-208 -93 c-14 -6 -26 -7 -32 -1 -5 5 4 9 23 10 30 1 30 1 9 -9z m-192 -59
c-11 -12 -20 -25 -20 -30 0 -4 -5 -8 -11 -8 -6 0 -1 14 11 30 12 17 26 30 31
30 5 0 1 -10 -11 -22z m73 -3 c-3 -9 -8 -14 -10 -11 -3 3 -2 9 2 15 9 16 15
13 8 -4z m-124 -62 c-8 -9 -21 -25 -30 -34 -9 -9 -19 -23 -21 -30 -3 -8 -9
-11 -13 -7 -9 8 52 88 67 88 6 0 4 -7 -3 -17z m2349 -728 c-3 -3 -9 2 -12 12
-6 14 -5 15 5 6 7 -7 10 -15 7 -18z"/>
<path d="M10230 9621 c0 -6 4 -13 10 -16 6 -3 7 1 4 9 -7 18 -14 21 -14 7z"/>
<path d="M10256 9543 c-6 -14 -5 -15 5 -6 7 7 10 15 7 18 -3 3 -9 -2 -12 -12z"/>
<path d="M10280 9505 c0 -5 5 -17 10 -25 5 -8 10 -10 10 -5 0 6 -5 17 -10 25
-5 8 -10 11 -10 5z"/>
<path d="M10491 8804 c0 -11 3 -14 6 -6 3 7 2 16 -1 19 -3 4 -6 -2 -5 -13z"/>
<path d="M10511 8684 c0 -11 3 -14 6 -6 3 7 2 16 -1 19 -3 4 -6 -2 -5 -13z"/>
<path d="M10522 8630 c0 -14 2 -19 5 -12 2 6 2 18 0 25 -3 6 -5 1 -5 -13z"/>
<path d="M10532 8550 c0 -14 2 -19 5 -12 2 6 2 18 0 25 -3 6 -5 1 -5 -13z"/>
<path d="M10561 8264 c0 -11 3 -14 6 -6 3 7 2 16 -1 19 -3 4 -6 -2 -5 -13z"/>
<path d="M10532 7412 c-1 -26 -6 -41 -12 -37 -6 4 -7 -1 -3 -11 10 -28 25 10
20 54 l-4 37 -1 -43z"/>
<path d="M10511 7274 c0 -11 3 -14 6 -6 3 7 2 16 -1 19 -3 4 -6 -2 -5 -13z"/>
<path d="M10501 7194 c0 -11 3 -14 6 -6 3 7 2 16 -1 19 -3 4 -6 -2 -5 -13z"/>
<path d="M7866 7143 c-6 -14 -5 -15 5 -6 7 7 10 15 7 18 -3 3 -9 -2 -12 -12z"/>
<path d="M10461 7004 c0 -11 3 -14 6 -6 3 7 2 16 -1 19 -3 4 -6 -2 -5 -13z"/>
<path d="M7736 6982 l-19 -27 24 22 c12 12 21 24 18 27 -2 2 -13 -8 -23 -22z"/>
<path d="M7700 6939 c0 -5 5 -7 10 -4 6 3 10 8 10 11 0 2 -4 4 -10 4 -5 0 -10
-5 -10 -11z"/>
<path d="M10431 6874 c0 -11 3 -14 6 -6 3 7 2 16 -1 19 -3 4 -6 -2 -5 -13z"/>
<path d="M10336 6557 c3 -10 9 -15 12 -12 3 3 0 11 -7 18 -10 9 -11 8 -5 -6z"/>
<path d="M10291 6434 c0 -11 3 -14 6 -6 3 7 2 16 -1 19 -3 4 -6 -2 -5 -13z"/>
<path d="M10245 6299 c-4 -6 -5 -12 -2 -15 2 -3 7 2 10 11 7 17 1 20 -8 4z"/>
<path d="M10206 6215 c-9 -26 -7 -32 5 -12 6 10 9 21 6 23 -2 3 -7 -2 -11 -11z"/>
<path d="M10182 6155 c-17 -37 -14 -45 4 -12 9 16 14 31 11 33 -2 2 -9 -7 -15
-21z"/>
<path d="M10105 5989 c-4 -6 -5 -12 -2 -15 2 -3 7 2 10 11 7 17 1 20 -8 4z"/>
<path d="M9956 5727 c3 -10 9 -15 12 -12 3 3 0 11 -7 18 -10 9 -11 8 -5 -6z"/>
<path d="M9940 5711 c0 -6 4 -13 10 -16 6 -3 7 1 4 9 -7 18 -14 21 -14 7z"/>
<path d="M9856 5565 c-9 -26 -7 -32 5 -12 6 10 9 21 6 23 -2 3 -7 -2 -11 -11z"/>
<path d="M9805 5510 c-3 -5 -1 -10 4 -10 6 0 11 5 11 10 0 6 -2 10 -4 10 -3 0
-8 -4 -11 -10z"/>
<path d="M9819 5483 c-13 -16 -12 -17 4 -4 16 13 21 21 13 21 -2 0 -10 -8 -17
-17z"/>
<path d="M9785 5429 c-4 -6 -5 -12 -2 -15 2 -3 7 2 10 11 7 17 1 20 -8 4z"/>
<path d="M9684 5359 c-3 -6 -1 -16 5 -22 9 -9 10 -7 5 7 -6 15 -4 17 6 11 9
-5 11 -4 6 3 -9 15 -13 15 -22 1z"/>
<path d="M9726 5338 l-18 -33 21 25 c18 22 26 40 18 40 -1 0 -11 -15 -21 -32z"/>
<path d="M9627 5197 c-17 -20 -18 -20 -12 -2 3 11 2 16 -2 11 -4 -4 -8 -19 -8
-32 l-1 -24 23 27 c19 24 29 44 21 43 -2 -1 -11 -11 -21 -23z"/>
<path d="M9542 5079 c-45 -68 -37 -70 11 -3 21 30 34 54 30 54 -4 0 -23 -23
-41 -51z"/>
<path d="M9428 4923 c-20 -25 -49 -73 -44 -73 3 0 18 20 35 45 31 46 35 58 9
28z"/>
<path d="M9309 4763 c-13 -16 -12 -17 4 -4 16 13 21 21 13 21 -2 0 -10 -8 -17
-17z"/>
<path d="M9285 4730 c-4 -6 -11 -8 -16 -5 -5 3 -6 -1 -3 -9 3 -9 2 -16 -4 -16
-6 0 -12 6 -15 13 -2 6 -4 0 -3 -15 0 -14 4 -24 8 -22 10 7 50 64 44 64 -3 0
-8 -5 -11 -10z"/>
<path d="M9216 4644 c-5 -14 -4 -15 9 -4 17 14 19 20 6 20 -5 0 -12 -7 -15
-16z"/>
<path d="M9149 4553 c-13 -16 -12 -17 4 -4 9 7 17 15 17 17 0 8 -8 3 -21 -13z"/>
<path d="M9074 4468 c0 -16 2 -16 18 -1 10 9 18 17 18 19 0 1 -8 2 -18 1 -10
0 -18 -9 -18 -19z"/>
<path d="M9033 4408 c-15 -20 -25 -38 -20 -38 3 0 12 11 21 25 17 26 16 35 -1
13z"/>
<path d="M8966 4383 c-6 -14 -5 -15 5 -6 7 7 10 15 7 18 -3 3 -9 -2 -12 -12z"/>
<path d="M8969 4353 c0 -5 -2 -16 -4 -26 -2 -11 -1 -16 3 -13 8 8 14 46 7 46
-3 0 -5 -3 -6 -7z"/>
<path d="M5509 4333 c-13 -16 -12 -17 4 -4 16 13 21 21 13 21 -2 0 -10 -8 -17
-17z"/>
<path d="M8929 4283 c-13 -16 -12 -17 4 -4 16 13 21 21 13 21 -2 0 -10 -8 -17
-17z"/>
<path d="M7501 4266 c-17 -20 -18 -581 -1 -601 11 -13 -4 -15 -114 -15 -207 0
-226 -17 -226 -203 0 -111 1 -114 33 -169 61 -100 145 -196 200 -228 47 -27
61 -30 140 -30 85 0 90 1 119 31 29 28 30 34 25 83 -3 30 -19 85 -36 124 -29
65 -31 79 -31 185 0 90 3 117 15 127 8 7 15 23 15 35 0 12 -7 28 -15 35 -11 9
-15 32 -15 79 0 36 -7 91 -15 121 -10 39 -15 108 -15 236 0 126 -4 184 -12
192 -16 16 -53 15 -67 -2z m-15 -716 l32 0 4 -132 c4 -116 8 -140 30 -188 14
-30 28 -70 31 -87 l7 -33 -56 0 c-77 0 -117 22 -179 99 -104 130 -105 132
-105 242 0 68 4 99 13 103 6 3 52 4 101 1 49 -3 104 -5 122 -5z"/>
<path d="M8899 4243 c-13 -16 -12 -17 4 -4 16 13 21 21 13 21 -2 0 -10 -8 -17
-17z"/>
<path d="M8829 4153 c-13 -16 -12 -17 4 -4 9 7 17 15 17 17 0 8 -8 3 -21 -13z"/>
<path d="M8681 3967 c-13 -21 -12 -21 5 -5 10 10 16 20 13 22 -3 3 -11 -5 -18
-17z"/>
<path d="M8564 3828 c0 -10 1 -18 1 -18 0 0 8 9 17 19 16 18 15 20 -1 18 -9 0
-17 -9 -17 -19z"/>
<path d="M8534 3788 c-4 -7 -14 -24 -22 -38 -14 -24 -13 -24 3 -5 20 24 37 55
31 55 -3 0 -8 -6 -12 -12z"/>
<path d="M6332 3648 c-7 -7 -12 -25 -12 -40 0 -21 6 -29 25 -34 31 -8 55 10
55 40 0 26 -18 46 -40 46 -9 0 -21 -5 -28 -12z"/>
<path d="M8435 3650 c-4 -6 -11 -7 -17 -4 -7 4 -8 2 -4 -5 6 -9 11 -9 22 0 14
11 18 19 10 19 -3 0 -8 -5 -11 -10z"/>
<path d="M5553 3621 c-31 -14 -46 -46 -33 -70 13 -25 29 -30 64 -18 47 16 294
3 342 -19 l42 -19 -53 -88 c-49 -80 -75 -153 -75 -209 0 -12 -11 -41 -26 -65
-27 -46 -54 -179 -54 -268 0 -27 -10 -89 -22 -136 -22 -85 -22 -86 -2 -119 29
-50 68 -57 170 -31 46 12 92 21 102 21 11 0 60 14 110 30 50 17 100 30 111 30
23 0 51 25 51 45 0 7 -8 21 -17 30 -21 22 -88 14 -180 -20 -36 -14 -75 -25
-87 -25 -12 0 -57 -9 -100 -20 -43 -12 -81 -19 -83 -16 -3 3 4 36 16 75 11 38
21 95 21 128 0 92 18 180 50 244 17 32 30 71 30 87 0 53 30 127 85 212 30 46
55 94 55 107 0 35 -40 70 -105 94 -50 17 -88 22 -225 25 -91 2 -175 0 -187 -5z"/>
<path d="M8403 3618 c1 -7 -4 -12 -11 -10 -8 1 -11 -2 -7 -8 5 -8 11 -8 21 1
7 6 11 15 8 20 -8 13 -14 11 -11 -3z"/>
<path d="M8366 3563 c-6 -14 -5 -15 5 -6 7 7 10 15 7 18 -3 3 -9 -2 -12 -12z"/>
<path d="M8336 3523 c-6 -14 -5 -15 5 -6 7 7 10 15 7 18 -3 3 -9 -2 -12 -12z"/>
<path d="M6372 3408 c-16 -16 -15 -28 2 -64 8 -16 17 -74 20 -129 4 -55 15
-129 26 -163 14 -43 20 -92 20 -151 0 -94 15 -198 32 -218 14 -18 53 -16 68 2
10 12 10 31 1 90 -6 42 -11 113 -11 159 0 55 -7 104 -19 143 -11 33 -22 107
-26 164 -7 98 -23 154 -49 171 -17 12 -51 9 -64 -4z"/>
<path d="M6952 3405 c-7 -13 -14 -14 -36 -5 -61 23 -128 4 -160 -44 -12 -20
-16 -50 -16 -143 0 -136 8 -160 63 -187 32 -15 48 -17 90 -10 48 8 52 7 78
-18 25 -25 34 -28 98 -28 38 0 73 -4 76 -10 9 -14 48 -13 63 2 18 18 14 53 -9
74 -15 14 -40 20 -95 22 l-74 4 0 167 c0 117 -4 171 -12 179 -17 17 -55 15
-66 -3z m-37 -121 c21 -21 25 -34 25 -84 0 -70 -15 -90 -69 -90 -37 0 -39 2
-45 38 -10 62 -7 147 6 160 17 17 52 7 83 -24z"/>
<path d="M8192 3335 c-29 -45 -22 -45 12 0 15 19 23 35 19 35 -4 0 -18 -16
-31 -35z"/>
<path d="M8111 3253 c-1 -17 16 -25 25 -12 4 7 3 9 -4 5 -5 -3 -13 0 -15 6 -4
9 -6 10 -6 1z"/>
<path d="M8084 3183 c-15 -20 -23 -33 -16 -29 13 8 56 66 49 66 -3 0 -17 -17
-33 -37z"/>
<path d="M7989 3043 c-13 -16 -12 -17 4 -4 16 13 21 21 13 21 -2 0 -10 -8 -17
-17z"/>
<path d="M7930 2965 c-7 -9 -11 -17 -9 -20 3 -2 10 5 17 15 14 24 10 26 -8 5z"/>
<path d="M5316 2955 c4 -8 11 -15 16 -15 6 0 5 6 -2 15 -7 8 -14 15 -16 15 -2
0 -1 -7 2 -15z"/>
<path d="M7849 2843 c-13 -16 -12 -17 4 -4 9 7 17 15 17 17 0 8 -8 3 -21 -13z"/>
<path d="M7796 2763 c-6 -14 -5 -15 5 -6 7 7 10 15 7 18 -3 3 -9 -2 -12 -12z"/>
<path d="M7770 2725 c-7 -9 -11 -17 -9 -20 3 -2 10 5 17 15 14 24 10 26 -8 5z"/>
<path d="M5476 2717 c3 -10 9 -15 12 -12 3 3 0 11 -7 18 -10 9 -11 8 -5 -6z"/>
<path d="M7657 2550 c-15 -16 -23 -31 -19 -33 4 -3 17 11 29 29 27 42 24 43
-10 4z"/>
<path d="M7616 2557 c3 -10 9 -15 12 -12 3 3 0 11 -7 18 -10 9 -11 8 -5 -6z"/>
<path d="M7622 2503 c1 -4 -3 -18 -10 -30 -17 -31 -8 -29 12 1 10 16 12 27 6
31 -6 4 -9 3 -8 -2z"/>
<path d="M7472 2225 c-17 -37 -14 -45 4 -12 9 16 14 31 11 33 -2 2 -9 -7 -15
-21z"/>
<path d="M5830 2105 c0 -5 5 -17 10 -25 5 -8 10 -10 10 -5 0 6 -5 17 -10 25
-5 8 -10 11 -10 5z"/>
<path d="M7386 2055 c-9 -26 -7 -32 5 -12 6 10 9 21 6 23 -2 3 -7 -2 -11 -11z"/>
<path d="M7330 1931 c0 -7 -4 -9 -10 -6 -6 4 -7 -1 -3 -11 6 -15 7 -15 15 1 6
9 7 19 4 22 -3 4 -6 1 -6 -6z"/>
<path d="M7246 1735 c-9 -26 -7 -32 5 -12 6 10 9 21 6 23 -2 3 -7 -2 -11 -11z"/>
<path d="M7165 1520 c3 -5 8 -10 11 -10 2 0 4 5 4 10 0 6 -5 10 -11 10 -5 0
-7 -4 -4 -10z"/>
<path d="M7136 1437 c3 -10 9 -15 12 -12 3 3 0 11 -7 18 -10 9 -11 8 -5 -6z"/>
<path d="M6127 1359 c4 -13 8 -18 11 -10 2 7 -1 18 -6 23 -8 8 -9 4 -5 -13z"/>
<path d="M7070 1261 c0 -6 4 -13 10 -16 6 -3 7 1 4 9 -7 18 -14 21 -14 7z"/>
<path d="M7061 1194 c0 -11 3 -14 6 -6 3 7 2 16 -1 19 -3 4 -6 -2 -5 -13z"/>
<path d="M6976 945 c-9 -26 -7 -32 5 -12 6 10 9 21 6 23 -2 3 -7 -2 -11 -11z"/>
<path d="M6940 869 c-7 -11 -10 -23 -7 -25 2 -2 9 7 15 21 14 30 7 33 -8 4z"/>
<path d="M6898 793 c-19 -23 -31 -43 -24 -43 2 0 14 14 26 30 23 33 22 40 -2
13z"/>
<path d="M6825 718 l-30 -31 33 22 c17 12 32 27 32 32 0 12 0 12 -35 -23z"/>
<path d="M6760 680 c-9 -6 -10 -10 -3 -10 6 0 15 5 18 10 8 12 4 12 -15 0z"/>
<path d="M6608 643 c6 -2 18 -2 25 0 6 3 1 5 -13 5 -14 0 -19 -2 -12 -5z"/>
</g>
</svg>
